<svg width="496" height="496" viewBox="0 0 496 496" fill="none" xmlns="http://www.w3.org/2000/svg">
<path d="M424 112C420.6 112 417.216 112.28 413.864 112.752C402.784 48.816 347.048 0 280 0C213.896 0 157.552 47.784 146.184 112.232C109.192 115.2 80 146.256 80 184C80 195.488 82.792 206.608 87.952 216.688C68.88 227.784 56 248.392 56 272C56 294.24 67.416 313.848 84.68 325.32C35.696 340.44 0 386.12 0 440V456C0 478.056 17.944 496 40 496H150.328H164H240V440C240 431.792 239.088 423.688 237.448 415.744C238.312 415.8 239.128 416 240 416H303.84L297.44 448H288C270.352 448 256 462.352 256 480V496H416V480C416 462.352 401.648 448 384 448H374.56L368.16 416H432C454.056 416 472 398.056 472 376V264C472 256.144 469.64 248.864 465.712 242.672C484.592 229.264 496 207.56 496 184C496 144.304 463.696 112 424 112V112ZM72 272C72 245.528 93.528 224 120 224C146.472 224 168 245.528 168 272C168 298.472 146.472 320 120 320C93.528 320 72 298.472 72 272ZM181.896 256H200.808C200.28 258.584 200 261.264 200 264V350.784C186.992 339.08 171.76 330.464 155.184 325.408C172.528 313.936 184 294.296 184 272C184 266.464 183.224 261.128 181.896 256ZM85.6 378.92L68.944 370.592L65.184 351.784C67.928 350.072 70.752 348.488 73.664 347.032L85.6 378.92ZM86.864 382.304L108.464 440H107.688L78.888 406.24L86.864 382.304ZM131.536 440L153.136 382.304L161.112 406.24L132.312 440H131.536ZM154.4 378.92L166.384 346.912C169.272 348.352 172.104 349.92 174.848 351.632L171.056 370.592L154.4 378.92ZM151.52 340.976L120 425.184L88.456 340.928C98.416 337.744 109 336 120 336C130.88 336 141.456 337.792 151.52 340.976ZM150.328 480H40C26.768 480 16 469.232 16 456V440C16 409.144 29.584 381.472 50.992 362.408L54.792 381.408L68.088 388.056L60.848 409.76L86.656 440H40V456H164C170.616 456 176 461.384 176 468C176 474.616 170.616 480 164 480H150.328ZM224 440V480H189.192C190.936 476.352 192 472.312 192 468C192 452.56 179.44 440 164 440H153.344L179.152 409.76L171.92 388.056L185.216 381.408L189.016 362.392C192.92 365.872 196.608 369.624 200 373.728V376C200 390.576 207.92 403.224 219.6 410.216C222.472 419.848 224 429.84 224 440V440ZM400 480H272C272 471.176 279.176 464 288 464H384C392.824 464 400 471.176 400 480ZM313.76 448L326.56 384H345.44L358.24 448H313.76ZM456 376C456 389.232 445.232 400 432 400H364.96L358.56 368H313.44L307.04 400H240C226.768 400 216 389.232 216 376V264C216 250.768 226.768 240 240 240H432C445.232 240 456 250.768 456 264V376ZM454.416 230.896C448.016 226.552 440.304 224 432 224H240C226.984 224 215.512 230.344 208.208 240H175.344C164.256 220.904 143.632 208 120 208C114.024 208 108.256 208.888 102.76 210.424C98.4 202.32 96 193.328 96 184C96 153.128 121.112 128.008 152.016 128.008H152.032L160.144 128.2L161.032 121.04C168.496 61.16 219.64 16 280 16C346.168 16 400 69.832 400 136C400 151.56 397.064 166.704 391.28 181L406.112 187C412.672 170.792 416 153.632 416 136C416 133.528 415.76 131.12 415.632 128.68C418.392 128.264 421.184 128 424 128C454.88 128 480 153.12 480 184C480 203.128 470.272 220.608 454.416 230.896V230.896ZM212 96C192.152 96 176 112.152 176 132V208H192V176H232V208H248V132C248 112.152 231.848 96 212 96ZM192 160V132C192 120.976 200.976 112 212 112C223.024 112 232 120.976 232 132V160H192ZM296 96H264V208H280V160H296C313.648 160 328 145.648 328 128C328 110.352 313.648 96 296 96ZM296 144H280V112H296C304.824 112 312 119.176 312 128C312 136.824 304.824 144 296 144ZM336 96H384V112H368V192H384V208H336V192H352V112H336V96ZM424 368H440V384H424V368ZM424 336H440V352H424V336ZM424 304H440V320H424V304Z" fill="url(#paint0_linear)"/>
<defs>
<linearGradient id="paint0_linear" x1="248" y1="496" x2="248" y2="0" gradientUnits="userSpaceOnUse">
<stop stop-color="#9F2FFF"/>
<stop offset="1" stop-color="#0BB1D3"/>
</linearGradient>
</defs>
</svg>
