<svg width="496" height="496" viewBox="0 0 496 496" fill="none" xmlns="http://www.w3.org/2000/svg">
<path d="M48 0V64H40C17.944 64 0 81.944 0 104V264C0 286.056 17.944 304 40 304H48V496H496V100.688L395.312 0H48ZM400 27.312L468.688 96H400V27.312ZM96 128V16H112V128H96ZM80 16V128H64V16H80ZM40 80H48V128H40C26.768 128 16 117.232 16 104C16 90.768 26.768 80 40 80ZM16 264V135.984C22.688 141.008 31 144 40 144H280C293.232 144 304 154.768 304 168V264C304 277.232 293.232 288 280 288H40C26.768 288 16 277.232 16 264ZM112 304V480H96V304H112ZM64 304H80V480H64V304ZM128 480V304H280C302.056 304 320 286.056 320 264V168C320 145.944 302.056 128 280 128H128V16H384V112H480V480H128ZM64 192V240C64 248.824 71.176 256 80 256C88.824 256 96 248.824 96 240H112C112 257.648 97.648 272 80 272C62.352 272 48 257.648 48 240V192C48 174.352 62.352 160 80 160C97.648 160 112 174.352 112 192H96C96 183.176 88.824 176 80 176C71.176 176 64 183.176 64 192ZM176 192V191.248C176 182.84 169.16 176 160.752 176H159.248C150.84 176 144 182.84 144 191.248C144 197.816 148.184 203.632 154.424 205.712L170.632 211.12C183.408 215.384 191.992 227.288 191.992 240.76C192 257.984 177.984 272 160.752 272H159.248C142.016 272 128 257.984 128 240.752V232H144V240.752C144 249.16 150.84 256 159.248 256H160.752C169.16 256 176 249.16 176 240.752C176 234.184 171.816 228.368 165.576 226.288L149.368 220.88C136.584 216.624 128 204.712 128 191.248C128 174.016 142.016 160 159.248 160H160.752C177.984 160 192 174.016 192 191.248L176 192ZM256 192V191.248C256 182.84 249.16 176 240.752 176H239.248C230.84 176 224 182.84 224 191.248C224 197.816 228.184 203.632 234.424 205.712L250.632 211.12C263.408 215.384 271.992 227.288 271.992 240.76C272 257.984 257.984 272 240.752 272H239.248C222.016 272 208 257.984 208 240.752V232H224V240.752C224 249.16 230.84 256 239.248 256H240.752C249.16 256 256 249.16 256 240.752C256 234.184 251.816 228.368 245.576 226.288L229.368 220.88C216.584 216.624 208 204.712 208 191.248C208 174.016 222.016 160 239.248 160H240.752C257.984 160 272 174.016 272 191.248L256 192ZM144 80H192V32H144V80ZM160 48H176V64H160V48ZM208 80H256V32H208V80ZM224 48H240V64H224V48ZM272 80H320V32H272V80ZM288 48H304V64H288V48ZM464 384V400C455.176 400 448 407.176 448 416V432C448 449.648 433.648 464 416 464H400V448H416C424.824 448 432 440.824 432 432V416C432 406.4 436.336 397.872 443.056 392C436.336 386.128 432 377.6 432 368V352C432 343.176 424.824 336 416 336H400V320H416C433.648 320 448 334.352 448 352V368C448 376.824 455.176 384 464 384ZM272 320H288V336H272C263.176 336 256 343.176 256 352V368C256 377.6 251.664 386.128 244.944 392C251.664 397.872 256 406.4 256 416V432C256 440.824 263.176 448 272 448H288V464H272C254.352 464 240 449.648 240 432V416C240 407.176 232.824 400 224 400V384C232.824 384 240 376.824 240 368V352C240 334.352 254.352 320 272 320ZM304 448H320V464H304V448ZM336 448H352V464H336V448ZM368 448H384V464H368V448ZM336 128H464V144H336V128ZM352 176H336V160H352V176ZM368 160H464V176H368V160ZM336 192H464V208H336V192ZM336 224H464V240H336V224ZM336 256H464V272H336V256Z" fill="url(#paint0_linear)"/>
<defs>
<linearGradient id="paint0_linear" x1="248" y1="496" x2="248" y2="0" gradientUnits="userSpaceOnUse">
<stop stop-color="#9F2FFF"/>
<stop offset="1" stop-color="#0BB1D3"/>
</linearGradient>
</defs>
</svg>
