<svg width="497" height="502" viewBox="0 0 497 502" fill="none" xmlns="http://www.w3.org/2000/svg">
<path d="M496.854 61.9426L384.15 0.462646V37.9426H88.1497C57.2777 37.9426 32.1497 63.0707 32.1497 93.9426V389.943H24.1497C10.9177 389.943 0.149719 400.711 0.149719 413.943V477.943C0.149719 491.175 10.9177 501.943 24.1497 501.943H472.15C485.382 501.943 496.15 491.175 496.15 477.943V413.943C496.15 400.711 485.382 389.943 472.15 389.943H456.15C442.918 389.943 432.15 400.711 432.15 413.943V421.943H362.382C404.558 391.391 432.15 341.887 432.15 285.943C432.15 193.311 356.782 117.943 264.15 117.943C171.518 117.943 96.1497 193.311 96.1497 285.943C96.1497 341.887 123.742 391.391 165.918 421.943H112.15V413.943C112.15 400.711 101.382 389.943 88.1497 389.943H80.1497V93.9426C80.1497 89.5266 83.7337 85.9426 88.1497 85.9426H384.15V123.423L496.854 61.9426ZM207.878 218.359L162.646 173.127C169.942 166.559 177.854 160.703 186.318 155.623L221.798 208.847C216.854 211.575 212.19 214.767 207.878 218.359ZM196.566 229.671C192.966 233.983 189.782 238.639 187.054 243.591L133.83 208.111C138.902 199.647 144.766 191.735 151.334 184.439L196.566 229.671ZM264.15 213.943C303.854 213.943 336.15 246.239 336.15 285.943C336.15 325.647 303.854 357.943 264.15 357.943C224.446 357.943 192.15 325.647 192.15 285.943C192.15 246.239 224.446 213.943 264.15 213.943ZM331.734 342.215C335.574 337.615 338.942 332.607 341.79 327.287L394.662 363.463C389.542 372.047 383.622 380.063 376.966 387.447L331.734 342.215ZM320.422 353.527L365.654 398.759C358.27 405.415 350.246 411.335 341.67 416.455L305.494 363.583C310.814 360.735 315.814 357.367 320.422 353.527V353.527ZM416.15 285.943C416.15 308.543 411.062 329.919 402.174 349.215L348.126 312.239C350.734 303.927 352.15 295.103 352.15 285.943C352.15 237.423 312.67 197.943 264.15 197.943C254.566 197.943 245.358 199.535 236.718 202.383L200.526 148.087C219.91 139.103 241.414 133.943 264.15 133.943C347.966 133.943 416.15 202.127 416.15 285.943ZM112.15 285.943C112.15 263.207 117.31 241.703 126.294 222.319L180.59 258.511C177.742 267.151 176.15 276.359 176.15 285.943C176.15 334.463 215.63 373.943 264.15 373.943C273.31 373.943 282.134 372.527 290.446 369.919L327.422 423.967C308.126 432.855 286.75 437.943 264.15 437.943C180.334 437.943 112.15 369.759 112.15 285.943ZM96.1497 413.943V437.943H193.062C214.686 448.095 238.718 453.943 264.15 453.943C289.582 453.943 313.614 448.095 335.238 437.943H448.15V413.943C448.15 409.527 451.734 405.943 456.15 405.943H472.15C476.566 405.943 480.15 409.527 480.15 413.943V477.943C480.15 482.359 476.566 485.943 472.15 485.943H24.1497C19.7337 485.943 16.1497 482.359 16.1497 477.943V413.943C16.1497 409.527 19.7337 405.943 24.1497 405.943H88.1497C92.5657 405.943 96.1497 409.527 96.1497 413.943ZM88.1497 69.9426C74.9177 69.9426 64.1497 80.7106 64.1497 93.9426V389.943H48.1497V93.9426C48.1497 71.8867 66.0937 53.9426 88.1497 53.9426H400.15V27.4226L463.446 61.9426L400.15 96.4626V69.9426H88.1497ZM264.15 309.943C277.382 309.943 288.15 299.175 288.15 285.943C288.15 272.711 277.382 261.943 264.15 261.943C250.918 261.943 240.15 272.711 240.15 285.943C240.15 299.175 250.918 309.943 264.15 309.943ZM264.15 277.943C268.566 277.943 272.15 281.527 272.15 285.943C272.15 290.359 268.566 293.943 264.15 293.943C259.734 293.943 256.15 290.359 256.15 285.943C256.15 281.527 259.734 277.943 264.15 277.943ZM264.15 341.943C295.022 341.943 320.15 316.815 320.15 285.943C320.15 255.071 295.022 229.943 264.15 229.943C233.278 229.943 208.15 255.071 208.15 285.943C208.15 316.815 233.278 341.943 264.15 341.943ZM264.15 245.943C286.206 245.943 304.15 263.887 304.15 285.943C304.15 307.999 286.206 325.943 264.15 325.943C242.094 325.943 224.15 307.999 224.15 285.943C224.15 263.887 242.094 245.943 264.15 245.943ZM56.1497 469.943C69.3817 469.943 80.1497 459.175 80.1497 445.943C80.1497 432.711 69.3817 421.943 56.1497 421.943C42.9177 421.943 32.1497 432.711 32.1497 445.943C32.1497 459.175 42.9177 469.943 56.1497 469.943ZM56.1497 437.943C60.5657 437.943 64.1497 441.527 64.1497 445.943C64.1497 450.359 60.5657 453.943 56.1497 453.943C51.7337 453.943 48.1497 450.359 48.1497 445.943C48.1497 441.527 51.7337 437.943 56.1497 437.943ZM144.15 469.943H128.15V453.943H144.15V469.943ZM112.15 469.943H96.1497V453.943H112.15V469.943ZM176.15 469.943H160.15V453.943H176.15V469.943ZM383.222 270.935L399.094 268.951C399.798 274.535 400.15 280.255 400.15 285.943H384.15C384.15 280.919 383.838 275.863 383.222 270.935V270.935ZM324.142 181.991L332.158 168.151C363.622 186.343 386.838 216.895 395.87 251.959L380.366 255.943C372.406 225.007 351.918 198.063 324.142 181.991Z" fill="url(#paint0_linear)"/>
<defs>
<linearGradient id="paint0_linear" x1="248.502" y1="501.943" x2="248.502" y2="0.462646" gradientUnits="userSpaceOnUse">
<stop stop-color="#9F2FFF"/>
<stop offset="1" stop-color="#0BB1D3"/>
</linearGradient>
</defs>
</svg>
