<svg width="452" height="496" viewBox="0 0 452 496" fill="none" xmlns="http://www.w3.org/2000/svg">
<path d="M48.9701 0V48H40.9701C18.9141 48 0.970093 65.944 0.970093 88V248C0.970093 270.056 18.9141 288 40.9701 288H48.9701V496H496.97V100.688L396.282 0H48.9701ZM400.97 27.312L469.658 96H400.97V27.312ZM96.9701 112V16H112.97V112H96.9701ZM80.9701 16V112H64.9701V16H80.9701ZM40.9701 64H48.9701V112H40.9701C27.7381 112 16.9701 101.232 16.9701 88C16.9701 74.768 27.7381 64 40.9701 64ZM16.9701 248V119.984C23.6581 125.008 31.9701 128 40.9701 128H296.97C310.202 128 320.97 138.768 320.97 152V248C320.97 261.232 310.202 272 296.97 272H40.9701C27.7381 272 16.9701 261.232 16.9701 248ZM112.97 288V480H96.9701V288H112.97ZM64.9701 288H80.9701V480H64.9701V288ZM128.97 480V288H296.97C319.026 288 336.97 270.056 336.97 248V152C336.97 129.944 319.026 112 296.97 112H128.97V16H384.97V112H480.97V480H128.97ZM112.97 144H160.97V160H144.97V232C144.97 245.232 134.202 256 120.97 256C107.738 256 96.9701 245.232 96.9701 232V224H112.97V232C112.97 236.408 116.554 240 120.97 240C125.386 240 128.97 236.408 128.97 232V160H112.97V144ZM224.97 176V175.248C224.97 166.84 218.138 160 209.73 160H208.218C199.802 160 192.97 166.84 192.97 175.248C192.97 181.816 197.154 187.632 203.402 189.712L219.602 195.12C232.386 199.376 240.97 211.288 240.97 224.752C240.97 241.984 226.954 256 209.73 256H208.218C190.986 256 176.97 241.984 176.97 224.752V216H192.97V224.752C192.97 233.16 199.802 240 208.21 240H209.722C218.138 240 224.97 233.16 224.97 224.752C224.97 218.184 220.786 212.368 214.538 210.288L198.338 204.88C185.554 200.624 176.97 188.712 176.97 175.248C176.97 158.016 190.986 144 208.21 144H209.722C226.954 144 240.97 158.016 240.97 175.248L224.97 176ZM448.97 376V392C440.146 392 432.97 399.176 432.97 408V432C432.97 449.648 418.618 464 400.97 464H384.97V448H400.97C409.794 448 416.97 440.824 416.97 432V408C416.97 398.4 421.306 389.872 428.026 384C421.306 378.128 416.97 369.6 416.97 360V336C416.97 327.176 409.794 320 400.97 320H384.97V304H400.97C418.618 304 432.97 318.352 432.97 336V360C432.97 368.824 440.146 376 448.97 376ZM256.97 304H272.97V320H256.97C248.146 320 240.97 327.176 240.97 336V360C240.97 369.6 236.634 378.128 229.914 384C236.634 389.872 240.97 398.4 240.97 408V432C240.97 440.824 248.146 448 256.97 448H272.97V464H256.97C239.322 464 224.97 449.648 224.97 432V408C224.97 399.176 217.794 392 208.97 392V376C217.794 376 224.97 368.824 224.97 360V336C224.97 318.352 239.322 304 256.97 304ZM328.97 304C315.738 304 304.97 314.768 304.97 328C304.97 341.232 315.738 352 328.97 352C342.202 352 352.97 341.232 352.97 328C352.97 314.768 342.202 304 328.97 304ZM328.97 336C324.554 336 320.97 332.408 320.97 328C320.97 323.592 324.554 320 328.97 320C333.386 320 336.97 323.592 336.97 328C336.97 332.408 333.386 336 328.97 336ZM328.97 368C315.738 368 304.97 378.768 304.97 392C304.97 405.232 315.738 416 328.97 416C331.786 416 334.458 415.424 336.97 414.528V440C336.97 444.408 333.386 448 328.97 448C324.554 448 320.97 444.408 320.97 440H304.97C304.97 453.232 315.738 464 328.97 464C342.202 464 352.97 453.232 352.97 440V392C352.97 378.768 342.202 368 328.97 368ZM328.97 400C324.554 400 320.97 396.408 320.97 392C320.97 387.592 324.554 384 328.97 384C333.386 384 336.97 387.592 336.97 392C336.97 396.408 333.386 400 328.97 400ZM144.97 80H192.97V32H144.97V80ZM160.97 48H176.97V64H160.97V48ZM208.97 80H256.97V32H208.97V80ZM224.97 48H240.97V64H224.97V48ZM272.97 80H320.97V32H272.97V80ZM288.97 48H304.97V64H288.97V48ZM368.97 144H352.97V128H368.97V144ZM384.97 128H464.97V144H384.97V128ZM352.97 160H464.97V176H352.97V160ZM432.97 208H352.97V192H432.97V208ZM448.97 192H464.97V208H448.97V192ZM352.97 224H464.97V240H352.97V224ZM352.97 256H464.97V272H352.97V256Z" fill="url(#paint0_linear)"/>
<defs>
<linearGradient id="paint0_linear" x1="248.97" y1="496" x2="248.97" y2="0" gradientUnits="userSpaceOnUse">
<stop stop-color="#9F2FFF"/>
<stop offset="1" stop-color="#0BB1D3"/>
</linearGradient>
</defs>
</svg>
