<svg width="497" height="497" viewBox="0 0 497 497" fill="none" xmlns="http://www.w3.org/2000/svg">
<path d="M120.349 88.3704V104.37H136.349V120.37H104.349V88.3704H120.349ZM120.349 175.82V152.37H104.349V175.82C75.4541 172.187 52.5322 149.265 48.8994 120.37H72.3486V104.37H48.8994C50.3486 92.7219 54.8994 81.8118 62.3721 72.4602L49.8682 62.4602C38.4111 76.804 32.3486 94.0579 32.3486 112.37C32.3486 156.484 68.2354 192.37 112.349 192.37C130.661 192.37 147.915 186.308 162.259 174.851L152.259 162.355C142.907 169.827 131.997 174.378 120.349 175.82ZM112.349 32.3704C94.0361 32.3704 76.7822 38.4329 62.4385 49.8899L72.4385 62.386C81.79 54.9133 92.7002 50.3625 104.349 48.9211V72.3704H120.349V48.9211C149.243 52.5461 172.165 75.4758 175.798 104.37H152.349V120.37H175.806C174.356 132.019 169.806 142.929 162.333 152.273L174.821 162.273C186.286 147.945 192.349 130.691 192.349 112.37C192.349 68.2571 156.462 32.3704 112.349 32.3704ZM496.349 91.7844C496.349 96.011 495.349 100.257 493.462 104.042L453.478 184.011C448.438 194.097 438.294 200.37 427.005 200.37C424.587 200.37 422.173 200.073 419.829 199.484L366.556 186.171L353.204 252.921L422.341 303.202C433.614 311.402 440.349 324.628 440.349 338.57C440.349 343.292 439.587 347.945 438.103 352.402L396.638 476.777C396.22 478.027 395.685 479.21 395.118 480.363H464.349V496.363H32.3486V480.363H140.251C137.837 476.003 136.349 471.066 136.349 465.745C136.349 457.57 139.532 449.874 145.317 444.089L233.028 356.378L270.419 184.37H261.685L228.653 263.636C224.419 273.804 214.563 280.37 203.548 280.37C188.548 280.37 176.349 268.171 176.349 253.171V252.316C176.349 248.616 177.091 245.019 178.548 241.601L213.157 160.843C195.044 198.363 156.731 224.37 112.349 224.37C50.5869 224.37 0.348633 174.132 0.348633 112.37C0.348633 50.6086 50.5869 0.370361 112.349 0.370361C174.11 0.370361 224.349 50.6086 224.349 112.37C224.349 126.202 221.708 139.402 217.103 151.652L218.532 148.308C223.579 136.507 234.075 127.804 246.622 125.011L296.349 113.956V100.05C286.556 91.2571 280.349 78.5461 280.349 64.3704V48.3704C280.349 21.8977 301.876 0.370361 328.349 0.370361C354.821 0.370361 376.349 21.8977 376.349 48.3704V64.3704C376.349 78.5383 370.142 91.2493 360.349 100.05V115.73L410.478 144.37H411.403L443.829 79.5305C448.501 70.179 457.892 64.3704 468.349 64.3704C484.052 64.3704 496.349 76.6672 496.349 91.7844V91.7844ZM208.349 112.37C208.349 59.4329 165.286 16.3704 112.349 16.3704C59.4111 16.3704 16.3486 59.4329 16.3486 112.37C16.3486 165.308 59.4111 208.37 112.349 208.37C165.286 208.37 208.349 165.308 208.349 112.37ZM296.349 64.3704C296.349 82.0188 310.7 96.3704 328.349 96.3704C345.997 96.3704 360.349 82.0188 360.349 64.3704V48.3704C360.349 30.7219 345.997 16.3704 328.349 16.3704C310.7 16.3704 296.349 30.7219 296.349 48.3704V64.3704ZM336.349 467.722C336.349 464.644 336.845 461.593 337.829 458.659L374.876 347.499L309.478 301.714L290.364 384.546C288.54 392.409 284.454 399.468 278.517 404.945L196.813 480.37H339.427C337.517 476.538 336.349 472.281 336.349 467.722ZM480.349 91.7844C480.349 85.4915 475.228 80.3704 468.935 80.3704C463.997 80.3704 460.083 82.7961 458.134 86.6829L421.294 160.37H406.22L344.349 125.011V109.57C339.333 111.347 333.966 112.37 328.349 112.37C322.731 112.37 317.364 111.347 312.349 109.57V126.784L250.091 140.628C242.579 142.3 236.271 147.515 233.243 154.593L193.251 247.89C192.661 249.281 192.349 250.812 192.349 252.308V253.171C192.349 259.347 197.372 264.37 203.548 264.37C208.075 264.37 212.142 261.667 213.884 257.484L251.013 168.37H290.278L247.669 364.363L156.63 455.402C153.907 458.124 152.349 461.89 152.349 465.745C152.349 473.812 158.907 480.37 166.974 480.37C171.188 480.37 174.716 478.995 177.419 476.499L267.661 393.195C271.22 389.906 273.685 385.683 274.774 380.964L299.228 275.027L393.829 341.241L352.997 463.73C352.563 465.027 352.349 466.37 352.349 467.73C352.349 474.698 358.021 480.37 364.997 480.37H369.47C374.923 480.37 379.739 476.89 381.462 471.73L422.935 347.339C423.868 344.515 424.349 341.562 424.349 338.57C424.349 329.73 420.075 321.339 412.923 316.132L335.493 259.82L354.142 166.57L423.7 183.964C429.884 185.476 436.349 182.476 439.157 176.851L479.142 96.8899C479.935 95.3157 480.349 93.5461 480.349 91.7844V91.7844ZM16.3486 480.37H0.348633V496.37H16.3486V480.37ZM480.349 496.37H496.349V480.37H480.349V496.37ZM32.3486 448.37H112.349V432.37H32.3486V448.37ZM16.3486 400.37H0.348633V416.37H16.3486V400.37ZM32.3486 416.37H152.349V400.37H32.3486V416.37ZM72.3486 368.37H192.349V352.37H72.3486V368.37ZM56.3486 336.37V320.37H40.3486V336.37H56.3486ZM72.3486 320.37V336.37H152.349V320.37H72.3486ZM32.3486 288.37H112.349V272.37H32.3486V288.37ZM16.3486 240.37H0.348633V256.37H16.3486V240.37ZM32.3486 256.37H160.349V240.37H32.3486V256.37Z" fill="url(#paint0_linear)"/>
<defs>
<linearGradient id="paint0_linear" x1="248.349" y1="496.37" x2="248.349" y2="0.370361" gradientUnits="userSpaceOnUse">
<stop stop-color="#9F2FFF"/>
<stop offset="1" stop-color="#0BB1D3"/>
</linearGradient>
</defs>
</svg>
