<svg id="Layer_5" enable-background="new 0 0 64 64" height="25"
     viewBox="0 0 64 64" xmlns="http://www.w3.org/2000/svg"
     xmlns:xlink="http://www.w3.org/1999/xlink">
    <linearGradient id="SVGID_1_" gradientUnits="userSpaceOnUse" x1="32" x2="32"
                    y1="56" y2="8">
        <stop offset="0" stop-color="#9f2fff"/>
        <stop offset="1" stop-color="#0bb1d3"/>
    </linearGradient>
    <path d="m60 8h-56c-1.654 0-3 1.346-3 3v42c0 1.654 1.346 3 3 3h56c1.654 0 3-1.346 3-3v-42c0-1.654-1.346-3-3-3zm-11.373 23h6.99c-.341 1.863-.547 3.882-.597 6h-7.971c.133-2.138.682-4.165 1.578-6zm1.163-2c2.119-3.105 5.295-5.435 9.035-6.443-1.16 1.573-2.115 3.791-2.781 6.443zm5.228 10c.048 2.119.248 4.139.581 6h-6.978c-.899-1.839-1.441-3.871-1.574-6zm1.007 8c.653 2.639 1.594 4.849 2.752 6.419-3.721-1.018-6.872-3.339-8.976-6.419zm2.066 0h2.909v5.968c-1.11-1.138-2.161-3.192-2.909-5.968zm-.462-2c-.343-1.784-.558-3.8-.61-6h3.981v6zm-.61-8c.052-2.191.272-4.206.617-6h3.364v6zm1.075-8c.742-2.758 1.786-4.818 2.906-5.964v5.964zm-54.094-19h56c.551 0 1 .449 1 1v9h-58v-9c0-.551.449-1 1-1zm-1 43v-31h51.783c-5.821 2.998-9.783 9.058-9.783 16 0 6.887 3.942 12.986 9.783 16h-50.783c-.551 0-1-.448-1-1zm4-35h10c1.103 0 2-.897 2-2v-2c0-1.103-.897-2-2-2h-10c-1.103 0-2 .897-2 2v2c0 1.103.897 2 2 2zm4-2v-2h2v2zm6.001 0h-2.001v-2h2zm-10.001-2h2v2h-2zm42 4h8c1.103 0 2-.897 2-2v-2c0-1.103-.897-2-2-2h-8c-1.103 0-2 .897-2 2v2c0 1.103.897 2 2 2zm0-4h8l.001 2h-8.001zm-14 4h8c1.103 0 2-.897 2-2v-2c0-1.103-.897-2-2-2h-8c-1.103 0-2 .897-2 2v2c0 1.103.897 2 2 2zm0-4h8l.001 2h-8.001zm-20 10h-10v6h10zm-2 4h-6v-2h6zm20-4h-16v6h16zm-2 4h-12v-2h12zm-26 24h36v-20h-36zm14.559-8.838c1.064.543 2.234.838 3.441.838s2.377-.295 3.441-.837l10.256 6.837h-27.394zm8.744-1.162 10.697-7.132v14.263zm-2.194-.941c-1.847 1.232-4.372 1.232-6.219 0l-10.587-7.059h27.395zm-8.412.941-10.697 7.131v-14.263zm17.303-12h6v-6h-6zm2-4h2v2h-2z"
          fill="url(#SVGID_1_)"/>
</svg>
